<?xml version="1.0" encoding="UTF-8"?>
<svg width="582px" height="582px" viewBox="0 0 582 582" version="1.1" xmlns="http://www.w3.org/2000/svg" xmlns:xlink="http://www.w3.org/1999/xlink">
    <title>Artboard Copy 2</title>
    <g id="Artboard-Copy-2" stroke="none" stroke-width="1" fill="none" fill-rule="evenodd">
        <circle id="Oval" fill="#ACE3FF" cx="291" cy="291" r="291"></circle>
        <g id="Group-2" transform="translate(182.468986, 49.501718)">
            <path d="M185.355014,332.119282 C170.089714,324.122261 160.565014,281.342282 160.565014,281.342282 L113.101014,287.426282 L65.6430143,281.342282 C65.6430143,281.342282 61.7299716,311.745063 49.1349716,325.841063 C36.5379716,339.943063 -13.8499857,400.397282 78.0770143,392.340282 C78.5440143,392.299282 78.9900143,392.260282 79.4510143,392.221282 C80.2780143,392.670282 81.1710143,392.981282 81.1710143,392.981282 L81.4420143,392.049282 C94.2240143,390.953282 104.647014,390.190282 113.101014,389.694282 C121.559014,390.190282 131.982014,390.954282 144.764014,392.049282 L145.034014,392.981282 C145.034014,392.981282 145.929014,392.670282 146.753014,392.221282 C147.215014,392.260282 147.660014,392.299282 148.129014,392.340282 C240.054014,400.396282 187.751084,354.382042 185.355014,332.119282 Z" id="Path" fill="#DDA075" fill-rule="nonzero"></path>
            <path d="M160.492014,281.341282 L113.027014,287.425282 L65.6430143,281.341282 C57.3820143,317.155282 109.583072,359.740136 173.455072,318.080136 C167.408072,305.109136 160.492014,281.341282 160.492014,281.341282 Z" id="Path" fill="#BE845E" fill-rule="nonzero"></path>
            <path d="M23.4600143,144.870282 C23.4600143,144.870282 11.1350143,305.949282 112.058014,305.949282 C212.981014,305.949282 204.572014,167.600282 204.572014,147.506282 C204.572014,127.409282 200.813014,69.8072819 106.000014,69.8072819 C11.1870143,69.8072819 23.4600143,144.870282 23.4600143,144.870282 Z" id="Path" fill="#DEA176" fill-rule="nonzero"></path>
            <path d="M24.8500143,148.089282 C24.8500143,148.089282 15.7200143,132.575282 8.86201432,138.650282 C4.44501432,142.561282 5.62401432,151.394282 13.2590143,167.416282 C16.5140143,174.245282 14.2050143,191.989282 18.4640143,195.025282 C22.7220143,198.063282 25.0880143,197.788282 26.7430143,191.712282 C28.3990143,185.639282 24.8500143,148.089282 24.8500143,148.089282 Z" id="Path" fill="#DDA075" fill-rule="nonzero"></path>
            <path d="M204.552014,148.089282 C204.552014,148.089282 213.678014,132.575282 220.539014,138.650282 C224.953014,142.561282 223.774014,151.394282 216.140014,167.416282 C212.886014,174.245282 215.196014,191.989282 210.938014,195.025282 C206.678014,198.063282 204.311014,197.788282 202.656014,191.712282 C201.002014,185.639282 204.552014,148.089282 204.552014,148.089282 Z" id="Path" fill="#DDA075" fill-rule="nonzero"></path>
            <path d="M201.456014,175.719282 C194.072014,236.563282 151.774014,265.529282 151.774014,265.529282 C151.774014,265.529282 146.403014,280.970282 135.661014,285.670282 C127.045014,289.441282 117.571014,285.438282 114.156014,283.703282 C114.010014,283.242282 113.925014,282.984282 113.925014,282.984282 C113.925014,282.984282 113.734014,283.101282 113.378014,283.297282 C113.024014,283.102282 112.834014,282.984282 112.834014,282.984282 C112.834014,282.984282 112.747014,283.242282 112.602014,283.703282 C109.184014,285.437282 99.7100143,289.441282 91.0980143,285.670282 C80.3550143,280.971282 74.9830143,265.529282 74.9830143,265.529282 C74.9830143,265.529282 32.6850143,236.563282 25.3000143,175.719282 C24.6320143,170.204282 24.1160143,144.778282 23.4600143,144.870033 C19.3340143,145.447282 18.3960143,266.560282 60.8840143,298.425282 C79.1360143,312.114282 97.3870143,316.874282 112.565014,317.142282 C112.654014,317.144282 112.742014,317.156282 112.835014,317.156282 C113.015014,317.156282 113.199014,317.150282 113.379014,317.150282 C113.561014,317.150282 113.744014,317.156282 113.926014,317.156282 C114.018014,317.156282 114.104014,317.144282 114.193014,317.142282 C129.372014,316.874282 147.624014,312.115282 165.875014,298.425282 C208.410014,266.527282 208.710014,147.876282 204.573014,147.506282 C203.918014,147.446282 202.123014,170.239282 201.456014,175.719282 Z" id="Path" fill="#1A1A1A"></path>
            <path d="M113.105014,260.656282 C109.448014,260.656282 103.604014,260.769282 103.181014,261.502282 C102.758014,262.232282 103.979014,271.572282 108.279014,274.928282 C112.581014,278.285282 110.193014,284.809282 110.193014,284.809282 L113.105014,284.698282 L116.020014,284.809282 C116.020014,284.809282 113.632014,278.286282 117.935014,274.928282 C122.234014,271.573282 123.429014,262.170282 123.034014,261.502282 C122.637014,260.830282 116.764014,260.656282 113.105014,260.656282 Z" id="Path" fill="#1A1A1A"></path>
            <path d="M68.8080143,109.579282 C68.8080143,109.579282 137.579014,94.3292819 169.231014,114.183282 C200.883014,134.037282 122.041014,63.8282819 122.041014,63.8282819 L68.8080143,109.579282 Z" id="Path" fill="#FFFFFF" fill-rule="nonzero"></path>
            <path d="M215.270014,172.321282 C215.270014,172.321282 163.292014,85.0482819 91.1470143,82.8922819 C18.9990143,80.7372819 216.104014,60.9872819 216.104014,60.9872819 C216.104014,60.9872819 221.953014,56.1352819 226.411014,68.0282819 C231.894014,82.6522819 236.040014,124.492282 215.270014,172.321282 Z" id="Path" fill="#2252A4" fill-rule="nonzero"></path>
            <path d="M14.1650143,169.072282 C14.1650143,169.072282 57.5720143,66.9512819 226.411014,68.0292819 C226.411014,68.0292819 198.161014,-13.9297181 98.7010143,2.07128189 C23.4950143,14.1702819 -25.2559857,92.5872819 13.7940143,167.995282" id="Path" fill="#20396E" fill-rule="nonzero"></path>
            <circle id="Oval" fill="#000000" fill-rule="nonzero" cx="75.6860143" cy="164.796282" r="7.906"></circle>
            <circle id="Oval" fill="#000000" fill-rule="nonzero" cx="149.708014" cy="164.796282" r="7.906"></circle>
            <path d="M126.531014,187.100282 C126.531014,182.089282 120.886014,178.498282 114.322014,178.498282 L114.093014,178.498282 C107.529014,178.498282 102.530014,182.089282 102.530014,187.100282 L102.530014,215.523282 C102.530014,220.535282 107.528014,224.498282 114.093014,224.498282 L114.322014,224.498282 C120.886014,224.498282 126.531014,220.535282 126.531014,215.523282 L126.531014,187.100282 Z" id="Path" fill="#BE845E" fill-rule="nonzero"></path>
            <line x1="60.5310143" y1="149.498282" x2="91.5310143" y2="149.498282" id="Path" stroke="#010101" stroke-width="8" stroke-linecap="round"></line>
            <line x1="134.531014" y1="149.498282" x2="165.531014" y2="149.498282" id="Path" stroke="#010101" stroke-width="8" stroke-linecap="round"></line>
            <g id="Group" transform="translate(89.120014, 238.936282)" fill-rule="nonzero">
                <polygon id="Path" fill="#610D0D" points="0.228 3.284 5.657 12.567 23.178 18.605 37.256 16.958 50.773 3.466"></polygon>
                <path d="M25.68,15.261 C25.594,15.261 25.496,15.267 25.395,15.277 C25.292,15.267 25.195,15.261 25.109,15.261 C21.921,15.261 8.768,14.279 0,2.839 C0,2.839 2.69,22.15 23.217,22.15 C24,22.15 24.714,22.136 25.396,22.117 C26.077,22.137 26.791,22.15 27.574,22.15 C48.1,22.15 50.791,2.839 50.791,2.839 C42.02,14.278 28.867,15.261 25.68,15.261 Z" id="Path" fill="#CB4A44"></path>
                <path d="M25.642,2.738 L2.305,1.694 C2.305,1.694 10.439,9.22 14.147,9.884 C17.704,10.522 21.686,10.429 25.642,10.421 C29.599,10.429 33.58,10.522 37.138,9.884 C40.844,9.22 48.978,1.694 48.978,1.694 L25.642,2.738 Z" id="Path" fill="#F9FCF7"></path>
                <path d="M25.607,0.711 L0.863,0 C0.863,0 9.487,5.128 13.418,5.582 C17.19,6.018 21.412,5.952 25.607,5.947 C29.802,5.952 34.024,6.017 37.796,5.582 C41.727,5.128 50.35,0 50.35,0 L25.607,0.711 Z" id="Path" fill="#AC3636"></path>
            </g>
            <path d="M114.709014,232.413282 L108.817014,226.468282 C108.817014,226.468282 88.6310143,230.983282 85.1370143,229.991282 C81.6460143,229.000282 77.6080143,239.459282 76.9540143,241.439282 C76.2990143,243.420282 73.8980143,261.255282 74.7700143,263.126282 C75.6450143,264.999282 85.9020143,248.153282 89.2840143,246.724282 C92.6670143,245.294282 102.268014,240.229282 106.415014,241.220282 C110.561014,242.211282 111.871014,242.413282 114.162014,242.532282 C116.454014,242.651282 114.709014,232.413282 114.709014,232.413282 Z" id="Path" fill="#1A1A1A"></path>
            <path d="M112.694014,232.413282 L118.587014,226.468282 C118.587014,226.468282 138.774014,230.983282 142.263014,229.991282 C145.755014,229.000282 149.794014,239.459282 150.447014,241.439282 C151.103014,243.420282 153.506014,261.255282 152.630014,263.126282 C151.757014,264.999282 141.500014,248.153282 138.116014,246.724282 C134.737014,245.294282 125.134014,240.229282 120.986014,241.220282 C116.841014,242.211282 115.533014,242.413282 113.240014,242.532282 C110.947014,242.651282 112.694014,232.413282 112.694014,232.413282 Z" id="Path" fill="#1A1A1A"></path>
        </g>
        <path d="M365.169243,380 L402.193326,394.83474 C440.130498,410.035335 465,446.791541 465,487.660687 L465.004714,524.267264 C416.471664,560.528915 356.243252,582 291,582 C226.204013,582 166.354345,560.822289 117.995065,525.010935 L118,490.0389 C118,447.990138 144.304456,410.433214 183.820869,396.061312 L227.982418,380 C240.82696,419.586923 264.104072,439.380384 297.813755,439.380384 C331.523439,439.380384 353.975268,419.586923 365.169243,380 Z" id="Combined-Shape" fill="#2252A4"></path>
    </g>
</svg>